<svg width="89" height="46" viewBox="0 0 89 46" fill="none" xmlns="http://www.w3.org/2000/svg">
<path d="M10.9247 12.0318C13.7078 12.0318 16.0874 13.0199 18.0636 14.9961C20.0399 16.9724 21.028 19.352 21.028 22.1351V30.116C21.028 30.7124 20.8175 31.2093 20.3965 31.6069C19.9755 32.0279 19.4786 32.2384 18.9056 32.2384H18.853C18.28 32.2384 17.783 32.0279 17.362 31.6069C16.941 31.2093 16.7306 30.7124 16.7306 30.116C15.3975 31.5309 13.4622 32.2384 10.9247 32.2384C8.14161 32.2384 5.76196 31.2503 3.78574 29.274C1.80952 27.2978 0.821411 24.9182 0.821411 22.1351C0.821411 19.352 1.80952 16.9724 3.78574 14.9961C5.76196 13.0199 8.14161 12.0318 10.9247 12.0318ZM10.9247 16.3292C9.31097 16.3292 7.93697 16.8964 6.80269 18.0306C5.6801 19.1649 5.11881 20.5331 5.11881 22.1351C5.11881 23.7488 5.6801 25.1228 6.80269 26.2571C7.93697 27.3797 9.31097 27.941 10.9247 27.941C12.5384 27.941 13.9066 27.3797 15.0291 26.2571C16.1634 25.1228 16.7306 23.7488 16.7306 22.1351C16.7306 20.5331 16.1634 19.1649 15.0291 18.0306C13.8949 16.8964 12.5267 16.3292 10.9247 16.3292Z" fill="black"/>
<path d="M31.475 12.0318C32.0597 12.0318 32.5625 12.2423 32.9835 12.6633C33.3928 13.0842 33.5974 13.5871 33.5974 14.1717V14.2068C33.5974 14.7915 33.3928 15.2885 32.9835 15.6978C32.5625 16.1187 32.0597 16.3292 31.475 16.3292H30.4752C29.5164 16.3292 28.7036 16.6625 28.0371 17.329C27.3823 17.9956 27.049 18.8083 27.0373 19.7671V30.116C27.0373 30.7124 26.8268 31.2093 26.4059 31.6069C25.9849 32.0279 25.4879 32.2384 24.9149 32.2384H24.8623C24.2893 32.2384 23.7923 32.0279 23.3714 31.6069C22.9504 31.2093 22.7399 30.7124 22.7399 30.116V19.7671C22.7633 17.6272 23.5175 15.803 25.0026 14.2945C26.5111 12.7861 28.3353 12.0318 30.4752 12.0318H31.475Z" fill="black"/>
<path d="M43.3253 12.0318C44.3778 12.0318 45.3951 12.1897 46.3774 12.5054C47.3713 12.8211 47.8683 13.4994 47.8683 14.5401V14.6278C47.8683 15.3411 47.5818 15.9082 47.0088 16.3292C46.6112 16.6099 46.202 16.7502 45.781 16.7502C45.5588 16.7502 45.3308 16.7151 45.0969 16.6449C44.5239 16.4578 43.9334 16.3643 43.3253 16.3643C41.7116 16.3643 40.3376 16.9314 39.2033 18.0657C38.0808 19.2 37.5195 20.574 37.5195 22.1877C37.5195 23.7897 38.0808 25.1579 39.2033 26.2922C40.3376 27.4264 41.7116 27.9936 43.3253 27.9936C43.9334 27.9936 44.5239 27.9 45.0969 27.7129C45.3191 27.6428 45.5413 27.6077 45.7635 27.6077C46.1961 27.6077 46.6112 27.748 47.0088 28.0287C47.5818 28.4496 47.8683 29.0226 47.8683 29.7476C47.8683 30.7767 47.3713 31.4549 46.3774 31.7823C45.3951 32.0864 44.3778 32.2384 43.3253 32.2384C40.5423 32.2384 38.1626 31.2503 36.1864 29.274C34.2102 27.2978 33.2221 24.9182 33.2221 22.1351C33.2221 19.352 34.2102 16.9724 36.1864 14.9961C38.1626 13.0199 40.5423 12.0318 43.3253 12.0318Z" fill="black"/>
<path d="M63.3973 24.5678C63.3973 24.6503 63.3677 24.7212 63.3083 24.7805C63.2489 24.8399 63.178 24.8696 63.0956 24.8696H63.0807C62.9983 24.8696 62.9273 24.8399 62.868 24.7805C62.8086 24.7212 62.7789 24.6503 62.7789 24.5678V21.8468C62.7789 21.2729 62.9818 20.7815 63.3874 20.3725C63.7931 19.9668 64.2846 19.764 64.8617 19.764C65.5478 19.764 66.1398 20.0905 66.6378 20.7436C67.1326 20.0905 67.7229 19.764 68.409 19.764C68.9861 19.764 69.4776 19.9668 69.8832 20.3725C70.2889 20.7815 70.4918 21.2729 70.4918 21.8468V24.5678C70.4918 24.6536 70.4637 24.7245 70.4077 24.7805C70.3483 24.8399 70.2757 24.8696 70.19 24.8696H70.1801C70.0976 24.8696 70.0267 24.8399 69.9674 24.7805C69.908 24.7212 69.8783 24.6503 69.8783 24.5678V21.8468C69.8783 21.4444 69.7348 21.0998 69.4479 20.8128C69.1609 20.5259 68.8146 20.3824 68.409 20.3824C68.0066 20.3824 67.6619 20.5259 67.375 20.8128C67.088 21.0998 66.9446 21.4444 66.9446 21.8468V24.5678C66.9446 24.6503 66.9149 24.7212 66.8555 24.7805C66.7961 24.8399 66.7252 24.8696 66.6428 24.8696H66.6329C66.5471 24.8696 66.4746 24.8399 66.4152 24.7805C66.3558 24.7212 66.3261 24.6503 66.3261 24.5678V21.8468C66.3261 21.4444 66.1827 21.0998 65.8957 20.8128C65.6088 20.5259 65.2641 20.3824 64.8617 20.3824C64.4594 20.3824 64.1147 20.5259 63.8278 20.8128C63.5408 21.0998 63.3973 21.4444 63.3973 21.8468V24.5678Z" fill="#FF6100"/>
<path d="M73.384 20.3923C72.8496 20.3923 72.3928 20.5819 72.0136 20.9612C71.6376 21.3405 71.4496 21.7973 71.4496 22.3316C71.4496 22.4273 71.4661 22.5872 71.499 22.8115L74.9869 21.2333C74.5185 20.6726 73.9842 20.3923 73.384 20.3923ZM75.7042 21.2581C75.7405 21.3339 75.7438 21.4114 75.7141 21.4906C75.6844 21.5665 75.6317 21.6225 75.5558 21.6588C75.0941 21.8666 74.4872 22.1403 73.7352 22.4801C72.8018 22.9022 72.1389 23.2007 71.7464 23.3755C72.2081 23.9692 72.754 24.266 73.384 24.266C73.8028 24.266 74.1821 24.1423 74.5218 23.895C74.8484 23.6575 75.0776 23.3475 75.2095 22.9649C75.259 22.8264 75.3579 22.7571 75.5063 22.7571C75.6119 22.7571 75.696 22.8 75.7587 22.8857C75.818 22.9715 75.8296 23.0638 75.7933 23.1628C75.6185 23.6674 75.3134 24.0764 74.878 24.3897C74.4295 24.7096 73.9315 24.8696 73.384 24.8696C72.6781 24.8696 72.0762 24.6206 71.5782 24.1226C71.0802 23.6245 70.8312 23.0226 70.8312 22.3168C70.8312 21.611 71.0802 21.0091 71.5782 20.511C72.0762 20.013 72.6781 19.764 73.384 19.764C73.8919 19.764 74.3569 19.9025 74.7791 20.1796C75.1914 20.45 75.4997 20.8095 75.7042 21.2581Z" fill="#FF6100"/>
<path d="M78.6063 20.3923C78.072 20.3923 77.6152 20.5819 77.2359 20.9612C76.8599 21.3405 76.6719 21.7973 76.6719 22.3316C76.6719 22.8626 76.8599 23.3178 77.2359 23.6971C77.6152 24.0764 78.072 24.266 78.6063 24.266C79.1439 24.266 79.5991 24.0764 79.9718 23.6971C80.3511 23.3178 80.5407 22.8626 80.5407 22.3316C80.5407 21.7973 80.3511 21.3405 79.9718 20.9612C79.5991 20.5819 79.1439 20.3923 78.6063 20.3923ZM80.8573 17.7356C80.9398 17.7356 81.0107 17.7636 81.0701 17.8197C81.1294 17.8791 81.1591 17.9516 81.1591 18.0374V22.3316C81.1558 23.0309 80.9052 23.6295 80.4071 24.1275C79.9091 24.6222 79.3088 24.8696 78.6063 24.8696C77.9005 24.8696 77.2986 24.6206 76.8006 24.1226C76.3025 23.6245 76.0535 23.0226 76.0535 22.3168C76.0535 21.611 76.3025 21.0091 76.8006 20.511C77.2986 20.013 77.9005 19.764 78.6063 19.764C79.2495 19.764 79.8943 20.0509 80.5407 20.6248V18.0374C80.5407 17.9516 80.5704 17.8791 80.6298 17.8197C80.6891 17.7636 80.76 17.7356 80.8425 17.7356H80.8573Z" fill="#FF6100"/>
<path d="M82.1417 19.764C82.2241 19.764 82.295 19.7937 82.3544 19.853C82.4138 19.9124 82.4434 19.985 82.4434 20.0707V24.5678C82.4434 24.6503 82.4138 24.7212 82.3544 24.7805C82.295 24.8399 82.2241 24.8696 82.1417 24.8696H82.1318C82.046 24.8696 81.9734 24.8399 81.9141 24.7805C81.8547 24.7212 81.825 24.6503 81.825 24.5678V20.0707C81.825 19.985 81.8547 19.9124 81.9141 19.853C81.9734 19.7937 82.046 19.764 82.1318 19.764H82.1417ZM82.1367 18.5272C82.0246 18.5272 81.9306 18.4892 81.8547 18.4134C81.7789 18.3375 81.7409 18.2435 81.7409 18.1314C81.7409 18.0225 81.7789 17.9302 81.8547 17.8543C81.9306 17.7785 82.0246 17.7405 82.1367 17.7405C82.2456 17.7405 82.3379 17.7785 82.4138 17.8543C82.4929 17.9335 82.5325 18.0258 82.5325 18.1314C82.5325 18.2402 82.4929 18.3342 82.4138 18.4134C82.3379 18.4892 82.2456 18.5272 82.1367 18.5272Z" fill="#FF6100"/>
<path d="M85.6671 19.764C86.3729 19.764 86.9748 20.013 87.4729 20.511C87.9709 21.0091 88.2199 21.611 88.2199 22.3168V24.5678C88.2199 24.6503 88.1902 24.7212 88.1308 24.7805C88.0715 24.8399 88.0006 24.8696 87.9181 24.8696H87.9033C87.8208 24.8696 87.7499 24.8399 87.6905 24.7805C87.6312 24.7212 87.6015 24.6503 87.6015 24.5678V24.0088C86.955 24.5827 86.3102 24.8696 85.6671 24.8696C84.9613 24.8696 84.3594 24.6206 83.8613 24.1226C83.3633 23.6245 83.1143 23.0226 83.1143 22.3168C83.1143 21.611 83.3633 21.0091 83.8613 20.511C84.3594 20.013 84.9613 19.764 85.6671 19.764ZM85.6671 20.3824C85.1328 20.3824 84.676 20.572 84.2967 20.9513C83.9207 21.3306 83.7327 21.7858 83.7327 22.3168C83.7327 22.8511 83.9207 23.3079 84.2967 23.6872C84.676 24.0632 85.1328 24.2512 85.6671 24.2512C86.2014 24.2512 86.6566 24.0632 87.0326 23.6872C87.4118 23.3079 87.6015 22.8511 87.6015 22.3168C87.6015 21.7858 87.4118 21.3306 87.0326 20.9513C86.6599 20.572 86.2047 20.3824 85.6671 20.3824Z" fill="#FF6100"/>
<path d="M42.3058 22.7868C42.3058 23.1892 42.4493 23.5338 42.7362 23.8208C43.0231 24.1077 43.3678 24.2512 43.7702 24.2512C44.1726 24.2512 44.5172 24.1077 44.8042 23.8208C45.0911 23.5338 45.2346 23.1892 45.2346 22.7868V20.0707C45.2346 19.985 45.2643 19.9124 45.3236 19.853C45.383 19.7937 45.4556 19.764 45.5413 19.764H45.5512C45.6337 19.764 45.7046 19.7937 45.7639 19.853C45.8233 19.9124 45.853 19.985 45.853 20.0707V22.7868C45.853 23.1892 45.9965 23.5338 46.2834 23.8208C46.5704 24.1077 46.915 24.2512 47.3174 24.2512C47.7231 24.2512 48.0694 24.1077 48.3563 23.8208C48.6433 23.5338 48.7867 23.1892 48.7867 22.7868V20.0707C48.7867 19.985 48.8164 19.9124 48.8758 19.853C48.9352 19.7937 49.0061 19.764 49.0885 19.764H49.0984C49.1842 19.764 49.2567 19.7937 49.3161 19.853C49.3722 19.9124 49.4002 19.985 49.4002 20.0707V22.7868C49.4002 23.364 49.1974 23.8554 48.7917 24.2611C48.386 24.6668 47.8946 24.8696 47.3174 24.8696C46.6314 24.8696 46.041 24.5464 45.5463 23.8999C45.0482 24.5464 44.4562 24.8696 43.7702 24.8696C43.193 24.8696 42.7016 24.6668 42.2959 24.2611C41.8902 23.8554 41.6874 23.364 41.6874 22.7868V20.0707C41.6874 19.985 41.7171 19.9124 41.7764 19.853C41.8358 19.7937 41.9067 19.764 41.9892 19.764H42.004C42.0865 19.764 42.1574 19.7937 42.2167 19.853C42.2761 19.9124 42.3058 19.985 42.3058 20.0707V22.7868Z" fill="#FFB629"/>
<path d="M52.2924 20.3923C51.7581 20.3923 51.3013 20.5819 50.922 20.9612C50.546 21.3405 50.358 21.7973 50.358 22.3316C50.358 22.4273 50.3745 22.5872 50.4075 22.8115L53.8953 21.2333C53.427 20.6726 52.8927 20.3923 52.2924 20.3923ZM54.6127 21.2581C54.649 21.3339 54.6523 21.4114 54.6226 21.4906C54.5929 21.5665 54.5401 21.6225 54.4643 21.6588C54.0025 21.8666 53.3956 22.1403 52.6437 22.4801C51.7103 22.9022 51.0473 23.2007 50.6548 23.3755C51.1166 23.9692 51.6624 24.266 52.2924 24.266C52.7113 24.266 53.0906 24.1423 53.4303 23.895C53.7568 23.6575 53.986 23.3475 54.118 22.9649C54.1674 22.8264 54.2664 22.7571 54.4148 22.7571C54.5203 22.7571 54.6044 22.8 54.6671 22.8857C54.7265 22.9715 54.738 23.0638 54.7017 23.1628C54.5269 23.6674 54.2218 24.0764 53.7865 24.3897C53.3379 24.7096 52.8399 24.8696 52.2924 24.8696C51.5866 24.8696 50.9847 24.6206 50.4866 24.1226C49.9886 23.6245 49.7396 23.0226 49.7396 22.3168C49.7396 21.611 49.9886 21.0091 50.4866 20.511C50.9847 20.013 51.5866 19.764 52.2924 19.764C52.8003 19.764 53.2654 19.9025 53.6875 20.1796C54.0998 20.45 54.4082 20.8095 54.6127 21.2581Z" fill="#FFB629"/>
<path d="M57.6632 20.3923C57.1289 20.3923 56.6721 20.5819 56.2928 20.9612C55.9168 21.3405 55.7288 21.7973 55.7288 22.3316C55.7288 22.8626 55.9168 23.3178 56.2928 23.6971C56.6721 24.0764 57.1289 24.266 57.6632 24.266C58.2008 24.266 58.6559 24.0764 59.0286 23.6971C59.4079 23.3178 59.5976 22.8626 59.5976 22.3316C59.5976 21.7973 59.4079 21.3405 59.0286 20.9612C58.6559 20.5819 58.2008 20.3923 57.6632 20.3923ZM55.427 17.7356C55.5095 17.7356 55.5804 17.7636 55.6397 17.8197C55.6991 17.8791 55.7288 17.9516 55.7288 18.0374V20.6248C56.3719 20.0509 57.0167 19.764 57.6632 19.764C58.369 19.764 58.9709 20.013 59.4689 20.511C59.967 21.0091 60.216 21.611 60.216 22.3168C60.216 23.0226 59.967 23.6245 59.4689 24.1226C58.9709 24.6206 58.369 24.8696 57.6632 24.8696C56.9574 24.8696 56.3571 24.6222 55.8624 24.1275C55.3643 23.6295 55.1137 23.0309 55.1104 22.3316V18.0374C55.1104 17.9516 55.1401 17.8791 55.1994 17.8197C55.2588 17.7636 55.3297 17.7356 55.4122 17.7356H55.427Z" fill="#FFB629"/>
<path d="M51.4479 27.489C51.2417 27.489 51.0666 27.5609 50.9226 27.7048C50.7787 27.8488 50.7067 28.0239 50.7067 28.2302C50.7067 28.4748 50.8183 28.6607 51.0414 28.7879C51.1397 28.843 51.4288 28.9402 51.9085 29.0793C52.3187 29.2016 52.6185 29.3491 52.808 29.5219C53.091 29.7785 53.2326 30.1395 53.2326 30.6049C53.2326 31.0558 53.0719 31.4408 52.7504 31.7598C52.4314 32.0789 52.0476 32.2384 51.5991 32.2384H50.2282C50.1107 32.2384 50.0087 32.1952 49.9224 32.1088C49.836 32.0225 49.7928 31.9205 49.7928 31.803V31.7814C49.7928 31.6639 49.836 31.5619 49.9224 31.4756C50.0087 31.3892 50.1107 31.3461 50.2282 31.3461H51.635C51.8389 31.3461 52.014 31.2741 52.1604 31.1302C52.3043 30.9863 52.3762 30.8111 52.3762 30.6049C52.3762 30.365 52.2647 30.1779 52.0416 30.0436C51.9361 29.9812 51.6458 29.8757 51.1709 29.7269C50.7607 29.5926 50.4621 29.4403 50.275 29.27C49.9919 29.0157 49.8504 28.6691 49.8504 28.2302C49.8504 27.7792 50.0099 27.3942 50.329 27.0752C50.648 26.7562 51.033 26.5966 51.4839 26.5966H52.4518C52.5717 26.5966 52.6749 26.6398 52.7612 26.7262C52.8452 26.8101 52.8872 26.9121 52.8872 27.032V27.0536C52.8872 27.1711 52.8452 27.2731 52.7612 27.3594C52.6749 27.4458 52.5717 27.489 52.4518 27.489H51.4479Z" fill="#0099FF"/>
<path d="M56.656 26.6182C57.4308 26.6182 58.094 26.8929 58.6457 27.4422C59.195 27.9915 59.4697 28.6535 59.4697 29.4283C59.4697 30.2031 59.195 30.8651 58.6457 31.4144C58.094 31.9637 57.4308 32.2384 56.656 32.2384C55.8812 32.2384 55.2192 31.9637 54.6699 31.4144C54.1206 30.8651 53.846 30.2031 53.846 29.4283C53.846 28.6535 54.1206 27.9915 54.6699 27.4422C55.2192 26.8929 55.8812 26.6182 56.656 26.6182ZM56.656 27.4962C56.1235 27.4962 55.669 27.6845 55.2924 28.061C54.9158 28.4376 54.7275 28.8934 54.7275 29.4283C54.7275 29.9632 54.9158 30.419 55.2924 30.7956C55.669 31.1697 56.1235 31.3568 56.656 31.3568C57.1909 31.3568 57.6467 31.1697 58.0233 30.7956C58.3999 30.419 58.5882 29.9632 58.5882 29.4283C58.5882 28.8934 58.3999 28.4376 58.0233 28.061C57.6467 27.6845 57.1909 27.4962 56.656 27.4962Z" fill="#0099FF"/>
<path d="M61.1481 30.9251C61.1481 31.045 61.1901 31.147 61.274 31.2309C61.358 31.3149 61.4599 31.3568 61.5799 31.3568H62.6269C62.7468 31.3568 62.85 31.4 62.9363 31.4864C63.0227 31.5727 63.0658 31.6759 63.0658 31.7958V31.803C63.0658 31.9253 63.0227 32.0273 62.9363 32.1088C62.85 32.1952 62.7468 32.2384 62.6269 32.2384H61.5799C61.2177 32.2384 60.9082 32.11 60.6516 31.8534C60.3949 31.5967 60.2666 31.2873 60.2666 30.9251V27.0536C60.2666 26.9337 60.3098 26.8305 60.3961 26.7442C60.4825 26.6602 60.5844 26.6182 60.7019 26.6182H60.7127C60.8303 26.6182 60.9322 26.6602 61.0186 26.7442C61.1049 26.8305 61.1481 26.9337 61.1481 27.0536V30.9251Z" fill="#0099FF"/>
<path d="M67.2953 30.3782C67.2953 30.8915 67.113 31.3293 66.7484 31.6915C66.3838 32.0561 65.9448 32.2384 65.4315 32.2384C64.9206 32.2384 64.4828 32.0561 64.1182 31.6915C63.7536 31.3293 63.5713 30.8915 63.5713 30.3782V27.0536C63.5713 26.9337 63.6145 26.8305 63.7008 26.7442C63.7872 26.6602 63.8891 26.6182 64.0067 26.6182H64.0175C64.135 26.6182 64.2369 26.6602 64.3233 26.7442C64.4096 26.8305 64.4528 26.9337 64.4528 27.0536V30.3782C64.4528 30.6492 64.5476 30.8807 64.7371 31.0726C64.929 31.2621 65.1604 31.3568 65.4315 31.3568C65.7049 31.3568 65.9376 31.2621 66.1295 31.0726C66.319 30.8807 66.4137 30.6492 66.4137 30.3782V27.0536C66.4137 26.9337 66.4569 26.8305 66.5433 26.7442C66.6296 26.6602 66.7316 26.6182 66.8491 26.6182H66.8599C66.9774 26.6182 67.0794 26.6602 67.1657 26.7442C67.2521 26.8305 67.2953 26.9337 67.2953 27.0536V30.3782Z" fill="#0099FF"/>
<path d="M71.4167 27.0608C71.4167 27.1807 71.3736 27.2839 71.2872 27.3702C71.2033 27.4542 71.1013 27.4962 70.9814 27.4962H70.1035V31.803C70.1035 31.9229 70.0615 32.0249 69.9775 32.1088C69.8912 32.1952 69.788 32.2384 69.6681 32.2384H69.6609C69.541 32.2384 69.4378 32.1952 69.3515 32.1088C69.2675 32.0249 69.2255 31.9229 69.2255 31.803V27.4962H68.3476C68.2301 27.4962 68.1281 27.4542 68.0418 27.3702C67.9554 27.2839 67.9123 27.1807 67.9123 27.0608V27.0536C67.9123 26.9337 67.9554 26.8305 68.0418 26.7442C68.1281 26.6602 68.2301 26.6182 68.3476 26.6182H70.9814C71.1013 26.6182 71.2033 26.6602 71.2872 26.7442C71.3736 26.8305 71.4167 26.9337 71.4167 27.0536V27.0608Z" fill="#0099FF"/>
<path d="M72.5842 26.6182C72.7018 26.6182 72.8037 26.6602 72.8901 26.7442C72.9764 26.8305 73.0196 26.9337 73.0196 27.0536V31.803C73.0196 31.9253 72.9764 32.0273 72.8901 32.1088C72.8037 32.1952 72.7018 32.2384 72.5842 32.2384H72.5734C72.4559 32.2384 72.354 32.1952 72.2676 32.1088C72.1812 32.0273 72.1381 31.9253 72.1381 31.803V27.0536C72.1381 26.9337 72.1812 26.8305 72.2676 26.7442C72.354 26.6602 72.4559 26.6182 72.5734 26.6182H72.5842Z" fill="#0099FF"/>
<path d="M76.6985 26.6182C77.4733 26.6182 78.1365 26.8929 78.6882 27.4422C79.2375 27.9915 79.5122 28.6535 79.5122 29.4283C79.5122 30.2031 79.2375 30.8651 78.6882 31.4144C78.1365 31.9637 77.4733 32.2384 76.6985 32.2384C75.9237 32.2384 75.2617 31.9637 74.7124 31.4144C74.1631 30.8651 73.8884 30.2031 73.8884 29.4283C73.8884 28.6535 74.1631 27.9915 74.7124 27.4422C75.2617 26.8929 75.9237 26.6182 76.6985 26.6182ZM76.6985 27.4962C76.166 27.4962 75.7114 27.6845 75.3349 28.061C74.9583 28.4376 74.77 28.8934 74.77 29.4283C74.77 29.9632 74.9583 30.419 75.3349 30.7956C75.7114 31.1697 76.166 31.3568 76.6985 31.3568C77.2334 31.3568 77.6892 31.1697 78.0658 30.7956C78.4424 30.419 78.6306 29.9632 78.6306 29.4283C78.6306 28.8934 78.4424 28.4376 78.0658 28.061C77.6892 27.6845 77.2334 27.4962 76.6985 27.4962Z" fill="#0099FF"/>
<path d="M83.997 31.803C83.997 31.9253 83.9539 32.0273 83.8675 32.1088C83.7812 32.1952 83.6792 32.2384 83.5617 32.2384H83.5509C83.4334 32.2384 83.3314 32.1952 83.2451 32.1088C83.1587 32.0273 83.1155 31.9253 83.1155 31.803V28.4784C83.1155 28.2074 83.0208 27.9759 82.8313 27.784C82.6394 27.5921 82.4067 27.4962 82.1333 27.4962C81.8622 27.4962 81.6307 27.5921 81.4388 27.784C81.2493 27.9759 81.1546 28.2074 81.1546 28.4784V31.803C81.1546 31.9253 81.1114 32.0273 81.0251 32.1088C80.9387 32.1952 80.8368 32.2384 80.7192 32.2384H80.7084C80.5909 32.2384 80.489 32.1952 80.4026 32.1088C80.3163 32.0273 80.2731 31.9253 80.2731 31.803V28.4784C80.2731 27.9651 80.4554 27.5261 80.82 27.1615C81.1846 26.7993 81.6223 26.6182 82.1333 26.6182C82.6466 26.6182 83.0855 26.7993 83.4501 27.1615C83.8147 27.5261 83.997 27.9651 83.997 28.4784V31.803Z" fill="#0099FF"/>
<path d="M86.3771 27.489C86.1708 27.489 85.9957 27.5609 85.8518 27.7048C85.7078 27.8488 85.6359 28.0239 85.6359 28.2302C85.6359 28.4748 85.7474 28.6607 85.9705 28.7879C86.0688 28.843 86.3579 28.9402 86.8376 29.0793C87.2478 29.2016 87.5476 29.3491 87.7371 29.5219C88.0202 29.7785 88.1617 30.1395 88.1617 30.6049C88.1617 31.0558 88.001 31.4408 87.6796 31.7598C87.3605 32.0789 86.9767 32.2384 86.5282 32.2384H85.1573C85.0398 32.2384 84.9379 32.1952 84.8515 32.1088C84.7652 32.0225 84.722 31.9205 84.722 31.803V31.7814C84.722 31.6639 84.7652 31.5619 84.8515 31.4756C84.9379 31.3892 85.0398 31.3461 85.1573 31.3461H86.5642C86.7681 31.3461 86.9432 31.2741 87.0895 31.1302C87.2334 30.9863 87.3054 30.8111 87.3054 30.6049C87.3054 30.365 87.1938 30.1779 86.9707 30.0436C86.8652 29.9812 86.575 29.8757 86.1 29.7269C85.6898 29.5926 85.3912 29.4403 85.2041 29.27C84.9211 29.0157 84.7795 28.6691 84.7795 28.2302C84.7795 27.7792 84.9391 27.3942 85.2581 27.0752C85.5771 26.7562 85.9621 26.5966 86.4131 26.5966H87.3809C87.5009 26.5966 87.604 26.6398 87.6904 26.7262C87.7743 26.8101 87.8163 26.9121 87.8163 27.032V27.0536C87.8163 27.1711 87.7743 27.2731 87.6904 27.3594C87.604 27.4458 87.5009 27.489 87.3809 27.489H86.3771Z" fill="#0099FF"/>
<rect x="11.5022" y="6.83879" width="9.67151" height="3.68439" rx="1.84219" transform="rotate(-45 11.5022 6.83879)" fill="#0099FF"/>
<rect x="18.499" y="13.7007" width="7.39139" height="3.68439" rx="1.84219" transform="rotate(-45 18.499 13.7007)" fill="#FFB629"/>
<rect x="14.8147" y="10.4769" width="11.5137" height="3.68439" rx="1.84219" transform="rotate(-45 14.8147 10.4769)" fill="#FF6100"/>
<path d="M1.43008 44.4517H2.24793C2.30394 44.4517 2.35252 44.4718 2.39367 44.5118C2.43482 44.5529 2.4554 44.6021 2.4554 44.6592V44.6626C2.4554 44.7198 2.43482 44.7689 2.39367 44.8101C2.35252 44.8501 2.30394 44.8701 2.24793 44.8701H1.43008V45.3742C1.43008 45.4313 1.45008 45.4799 1.49009 45.5199C1.5301 45.5599 1.57868 45.5799 1.63583 45.5799H2.24793C2.30394 45.5799 2.35252 45.6005 2.39367 45.6417C2.43482 45.6828 2.4554 45.732 2.4554 45.7891V45.7925C2.4554 45.8508 2.43482 45.8994 2.39367 45.9383C2.35252 45.9794 2.30394 46 2.24793 46H1.63583C1.46323 46 1.31578 45.9389 1.19347 45.8165C1.07116 45.6942 1.01001 45.5468 1.01001 45.3742V43.9477C1.01001 43.7751 1.07116 43.6276 1.19347 43.5053C1.31578 43.383 1.46323 43.3218 1.63583 43.3218H2.24793C2.30394 43.3218 2.35252 43.3424 2.39367 43.3836C2.43482 43.4224 2.4554 43.471 2.4554 43.5293V43.5327C2.4554 43.5899 2.43482 43.639 2.39367 43.6802C2.35252 43.7213 2.30394 43.7419 2.24793 43.7419H1.63583C1.57868 43.7419 1.5301 43.7619 1.49009 43.8019C1.45008 43.8419 1.43008 43.8905 1.43008 43.9477V44.4517Z" fill="black"/>
<path d="M5.40872 45.7925C5.40872 45.8508 5.38814 45.8994 5.34699 45.9383C5.30584 45.9794 5.25727 46 5.20126 46H5.19611C5.1401 46 5.09152 45.9794 5.05037 45.9383C5.00922 45.8994 4.98865 45.8508 4.98865 45.7925V45.273C4.98865 45.1439 4.9435 45.0336 4.8532 44.9421C4.76175 44.8507 4.65088 44.8049 4.52057 44.8049C4.3914 44.8049 4.2811 44.8507 4.18966 44.9421C4.09936 45.0336 4.0542 45.1439 4.0542 45.273V45.7925C4.0542 45.8508 4.03363 45.8994 3.99248 45.9383C3.95133 45.9794 3.90275 46 3.84674 46H3.8416C3.78559 46 3.73701 45.9794 3.69586 45.9383C3.65471 45.8994 3.63413 45.8508 3.63413 45.7925V45.273C3.63413 44.9713 3.73758 44.7455 3.94447 44.5958C3.73758 44.446 3.63413 44.2203 3.63413 43.9185V43.5293C3.63413 43.4722 3.65471 43.423 3.69586 43.3819C3.73701 43.3418 3.78559 43.3218 3.8416 43.3218H3.84674C3.90275 43.3218 3.95133 43.3418 3.99248 43.3819C4.03363 43.423 4.0542 43.4722 4.0542 43.5293V43.9185C4.0542 44.0477 4.09936 44.158 4.18966 44.2494C4.2811 44.3409 4.3914 44.3866 4.52057 44.3866C4.65088 44.3866 4.76175 44.3409 4.8532 44.2494C4.9435 44.158 4.98865 44.0477 4.98865 43.9185V43.5293C4.98865 43.4722 5.00922 43.423 5.05037 43.3819C5.09152 43.3418 5.1401 43.3218 5.19611 43.3218H5.20126C5.25727 43.3218 5.30584 43.3418 5.34699 43.3819C5.38814 43.423 5.40872 43.4722 5.40872 43.5293V43.9185C5.40872 44.2203 5.30527 44.446 5.09838 44.5958C5.30527 44.7455 5.40872 44.9713 5.40872 45.273V45.7925Z" fill="black"/>
<path d="M7.10354 44.7226H7.59391C7.72993 44.7226 7.84595 44.6746 7.94197 44.5786C8.03684 44.4838 8.08428 44.3683 8.08428 44.2323C8.08428 44.0963 8.03684 43.9802 7.94197 43.8842C7.84595 43.7882 7.72993 43.7402 7.59391 43.7402C7.45789 43.7402 7.34187 43.7882 7.24585 43.8842C7.15098 43.9802 7.10354 44.0963 7.10354 44.2323V44.7226ZM7.10354 45.1427V45.7925C7.10354 45.8508 7.08297 45.8994 7.04182 45.9383C7.00067 45.9794 6.95209 46 6.89608 46H6.89094C6.83493 46 6.78635 45.9794 6.7452 45.9383C6.70405 45.8994 6.68347 45.8508 6.68347 45.7925V44.2323C6.68347 43.9808 6.77263 43.7659 6.95095 43.5876C7.12926 43.4104 7.34358 43.3218 7.59391 43.3218C7.84538 43.3218 8.0597 43.4104 8.23688 43.5876C8.41519 43.7659 8.50435 43.9808 8.50435 44.2323C8.50435 44.4826 8.41519 44.6969 8.23688 44.8752C8.0597 45.0536 7.84538 45.1427 7.59391 45.1427H7.10354Z" fill="black"/>
<path d="M10.146 44.4517H10.9639C11.0199 44.4517 11.0685 44.4718 11.1096 44.5118C11.1508 44.5529 11.1713 44.6021 11.1713 44.6592V44.6626C11.1713 44.7198 11.1508 44.7689 11.1096 44.8101C11.0685 44.8501 11.0199 44.8701 10.9639 44.8701H10.146V45.3742C10.146 45.4313 10.166 45.4799 10.206 45.5199C10.246 45.5599 10.2946 45.5799 10.3518 45.5799H10.9639C11.0199 45.5799 11.0685 45.6005 11.1096 45.6417C11.1508 45.6828 11.1713 45.732 11.1713 45.7891V45.7925C11.1713 45.8508 11.1508 45.8994 11.1096 45.9383C11.0685 45.9794 11.0199 46 10.9639 46H10.3518C10.1792 46 10.0317 45.9389 9.90941 45.8165C9.78711 45.6942 9.72595 45.5468 9.72595 45.3742V43.9477C9.72595 43.7751 9.78711 43.6276 9.90941 43.5053C10.0317 43.383 10.1792 43.3218 10.3518 43.3218H10.9639C11.0199 43.3218 11.0685 43.3424 11.1096 43.3836C11.1508 43.4224 11.1713 43.471 11.1713 43.5293V43.5327C11.1713 43.5899 11.1508 43.639 11.1096 43.6802C11.0685 43.7213 11.0199 43.7419 10.9639 43.7419H10.3518C10.2946 43.7419 10.246 43.7619 10.206 43.8019C10.166 43.8419 10.146 43.8905 10.146 43.9477V44.4517Z" fill="black"/>
<path d="M13.6463 43.3218C13.7595 43.3218 13.8703 43.3356 13.9789 43.363C14.0841 43.3904 14.1367 43.4573 14.1367 43.5636V43.5687C14.1367 43.6362 14.1092 43.691 14.0544 43.7333C14.0178 43.7619 13.9778 43.7762 13.9343 43.7762C13.9161 43.7762 13.8972 43.7739 13.8778 43.7693C13.8012 43.7499 13.724 43.7402 13.6463 43.7402C13.3925 43.7402 13.1759 43.8299 12.9965 44.0094C12.817 44.1888 12.7273 44.406 12.7273 44.6609C12.7273 44.9158 12.817 45.133 12.9965 45.3125C13.1759 45.4908 13.3925 45.5799 13.6463 45.5799C13.724 45.5799 13.8012 45.5708 13.8778 45.5525C13.8972 45.5479 13.9161 45.5456 13.9343 45.5456C13.9778 45.5456 14.0178 45.5599 14.0544 45.5885C14.1092 45.6297 14.1367 45.6845 14.1367 45.7531V45.7565C14.1367 45.864 14.0841 45.9314 13.9789 45.9589C13.8703 45.9863 13.7595 46 13.6463 46C13.2771 46 12.9616 45.8691 12.6998 45.6074C12.4381 45.3456 12.3072 45.0301 12.3072 44.6609C12.3072 44.2917 12.4381 43.9762 12.6998 43.7145C12.9616 43.4527 13.2771 43.3218 13.6463 43.3218Z" fill="black"/>
<path d="M16.8911 43.5327C16.8911 43.5899 16.8705 43.639 16.8294 43.6802C16.7894 43.7202 16.7408 43.7402 16.6836 43.7402H16.2653V45.7925C16.2653 45.8497 16.2453 45.8983 16.2053 45.9383C16.1641 45.9794 16.115 46 16.0578 46H16.0544C15.9972 46 15.9481 45.9794 15.9069 45.9383C15.8669 45.8983 15.8469 45.8497 15.8469 45.7925V43.7402H15.4286C15.3726 43.7402 15.324 43.7202 15.2828 43.6802C15.2417 43.639 15.2211 43.5899 15.2211 43.5327V43.5293C15.2211 43.4722 15.2417 43.423 15.2828 43.3819C15.324 43.3418 15.3726 43.3218 15.4286 43.3218H16.6836C16.7408 43.3218 16.7894 43.3418 16.8294 43.3819C16.8705 43.423 16.8911 43.4722 16.8911 43.5293V43.5327Z" fill="black"/>
<path d="M21.7981 45.7925C21.7981 45.8508 21.7776 45.8994 21.7364 45.9383C21.6953 45.9794 21.6467 46 21.5907 46H21.5855C21.5295 46 21.4809 45.9794 21.4398 45.9383C21.3986 45.8994 21.3781 45.8508 21.3781 45.7925V44.2083C21.3781 44.0791 21.3329 43.9688 21.2426 43.8774C21.1512 43.7859 21.0403 43.7402 20.91 43.7402C20.7808 43.7402 20.6705 43.7859 20.5791 43.8774C20.4888 43.9688 20.4436 44.0791 20.4436 44.2083V45.7925C20.4436 45.8508 20.4231 45.8994 20.3819 45.9383C20.3408 45.9794 20.2922 46 20.2362 46H20.231C20.175 46 20.1264 45.9794 20.0853 45.9383C20.0441 45.8994 20.0236 45.8508 20.0236 45.7925V44.2083C20.0236 43.9637 20.1104 43.7545 20.2842 43.5807C20.4579 43.4081 20.6665 43.3218 20.91 43.3218C21.1546 43.3218 21.3638 43.4081 21.5375 43.5807C21.7113 43.7545 21.7981 43.9637 21.7981 44.2083V45.7925Z" fill="black"/>
<path d="M24.3777 43.3218C24.7469 43.3218 25.0629 43.4527 25.3258 43.7145C25.5876 43.9762 25.7185 44.2917 25.7185 44.6609C25.7185 45.0301 25.5876 45.3456 25.3258 45.6074C25.0629 45.8691 24.7469 46 24.3777 46C24.0085 46 23.693 45.8691 23.4312 45.6074C23.1695 45.3456 23.0386 45.0301 23.0386 44.6609C23.0386 44.2917 23.1695 43.9762 23.4312 43.7145C23.693 43.4527 24.0085 43.3218 24.3777 43.3218ZM24.3777 43.7402C24.1239 43.7402 23.9073 43.8299 23.7279 44.0094C23.5484 44.1888 23.4587 44.406 23.4587 44.6609C23.4587 44.9158 23.5484 45.133 23.7279 45.3125C23.9073 45.4908 24.1239 45.5799 24.3777 45.5799C24.6326 45.5799 24.8498 45.4908 25.0292 45.3125C25.2087 45.133 25.2984 44.9158 25.2984 44.6609C25.2984 44.406 25.2087 44.1888 25.0292 44.0094C24.8498 43.8299 24.6326 43.7402 24.3777 43.7402Z" fill="black"/>
<path d="M28.5089 43.5327C28.5089 43.5899 28.4883 43.639 28.4472 43.6802C28.4072 43.7202 28.3586 43.7402 28.3015 43.7402H27.8831V45.7925C27.8831 45.8497 27.8631 45.8983 27.8231 45.9383C27.7819 45.9794 27.7328 46 27.6756 46H27.6722C27.6151 46 27.5659 45.9794 27.5248 45.9383C27.4847 45.8983 27.4647 45.8497 27.4647 45.7925V43.7402H27.0464C26.9904 43.7402 26.9418 43.7202 26.9007 43.6802C26.8595 43.639 26.8389 43.5899 26.8389 43.5327V43.5293C26.8389 43.4722 26.8595 43.423 26.9007 43.3819C26.9418 43.3418 26.9904 43.3218 27.0464 43.3218H28.3015C28.3586 43.3218 28.4072 43.3418 28.4472 43.3819C28.4883 43.423 28.5089 43.4722 28.5089 43.5293V43.5327Z" fill="black"/>
<path d="M29.8917 43.3218C29.9477 43.3218 29.9963 43.3418 30.0374 43.3819C30.0786 43.423 30.0992 43.4722 30.0992 43.5293V44.4517H31.049V43.5293C31.049 43.4722 31.0696 43.423 31.1108 43.3819C31.1519 43.3418 31.2005 43.3218 31.2565 43.3218H31.2616C31.3176 43.3218 31.3662 43.3418 31.4074 43.3819C31.4485 43.423 31.4691 43.4722 31.4691 43.5293V45.7925C31.4691 45.8508 31.4485 45.8994 31.4074 45.9383C31.3662 45.9794 31.3176 46 31.2616 46H31.2565C31.2005 46 31.1519 45.9794 31.1108 45.9383C31.0696 45.8994 31.049 45.8508 31.049 45.7925V44.8701H30.0992V45.7925C30.0992 45.8508 30.0786 45.8994 30.0374 45.9383C29.9963 45.9794 29.9477 46 29.8917 46H29.8865C29.8305 46 29.782 45.9794 29.7408 45.9383C29.6997 45.8994 29.6791 45.8508 29.6791 45.7925V43.5293C29.6791 43.4722 29.6997 43.423 29.7408 43.3819C29.782 43.3418 29.8305 43.3218 29.8865 43.3218H29.8917Z" fill="black"/>
<path d="M33.0233 43.3218C33.0793 43.3218 33.1279 43.3418 33.1691 43.3819C33.2102 43.423 33.2308 43.4722 33.2308 43.5293V45.7925C33.2308 45.8508 33.2102 45.8994 33.1691 45.9383C33.1279 45.9794 33.0793 46 33.0233 46H33.0182C32.9622 46 32.9136 45.9794 32.8724 45.9383C32.8313 45.8994 32.8107 45.8508 32.8107 45.7925V43.5293C32.8107 43.4722 32.8313 43.423 32.8724 43.3819C32.9136 43.3418 32.9622 43.3218 33.0182 43.3218H33.0233Z" fill="black"/>
<path d="M36.3487 45.7925C36.3487 45.8508 36.3281 45.8994 36.287 45.9383C36.2458 45.9794 36.1973 46 36.1413 46H36.1361C36.0801 46 36.0315 45.9794 35.9904 45.9383C35.9492 45.8994 35.9286 45.8508 35.9286 45.7925V44.2083C35.9286 44.0791 35.8835 43.9688 35.7932 43.8774C35.7017 43.7859 35.5909 43.7402 35.4606 43.7402C35.3314 43.7402 35.2211 43.7859 35.1297 43.8774C35.0394 43.9688 34.9942 44.0791 34.9942 44.2083V45.7925C34.9942 45.8508 34.9736 45.8994 34.9325 45.9383C34.8913 45.9794 34.8427 46 34.7867 46H34.7816C34.7256 46 34.677 45.9794 34.6359 45.9383C34.5947 45.8994 34.5741 45.8508 34.5741 45.7925V44.2083C34.5741 43.9637 34.661 43.7545 34.8347 43.5807C35.0085 43.4081 35.2171 43.3218 35.4606 43.3218C35.7052 43.3218 35.9144 43.4081 36.0881 43.5807C36.2618 43.7545 36.3487 43.9637 36.3487 44.2083V45.7925Z" fill="black"/>
<path d="M38.9283 43.3218C39.3203 43.3218 39.649 43.4659 39.9141 43.7539C39.9519 43.7951 39.9707 43.8419 39.9707 43.8945C39.9707 43.9025 39.9702 43.9099 39.969 43.9168C39.961 43.9797 39.933 44.0277 39.885 44.0608L39.8816 44.0643C39.8438 44.0917 39.8038 44.1054 39.7615 44.1054C39.7535 44.1054 39.7455 44.1048 39.7375 44.1037C39.6861 44.0991 39.6421 44.0768 39.6055 44.0368C39.4238 43.8391 39.198 43.7402 38.9283 43.7402C38.6745 43.7402 38.4579 43.8299 38.2784 44.0094C38.099 44.1888 38.0092 44.406 38.0092 44.6609C38.0092 44.9158 38.099 45.133 38.2784 45.3125C38.4579 45.4908 38.6745 45.5799 38.9283 45.5799C39.1557 45.5799 39.3552 45.5062 39.5266 45.3588C39.697 45.2124 39.797 45.0496 39.8267 44.8701H38.9711C38.914 44.8701 38.8648 44.8495 38.8237 44.8084C38.7837 44.7684 38.7637 44.7198 38.7637 44.6626V44.6592C38.7637 44.6021 38.7837 44.5529 38.8237 44.5118C38.8648 44.4718 38.914 44.4517 38.9711 44.4517H40.0599C40.117 44.4517 40.1662 44.4718 40.2073 44.5118C40.2473 44.5529 40.2679 44.6021 40.2691 44.6592V44.6609C40.2691 45.0301 40.1382 45.3456 39.8764 45.6074C39.6135 45.8691 39.2975 46 38.9283 46C38.5591 46 38.2436 45.8691 37.9818 45.6074C37.7201 45.3456 37.5892 45.0301 37.5892 44.6609C37.5892 44.2917 37.7201 43.9762 37.9818 43.7145C38.2436 43.4527 38.5591 43.3218 38.9283 43.3218Z" fill="black"/>
<path d="M43.909 45.3742C43.909 45.4313 43.929 45.4799 43.969 45.5199C44.0091 45.5599 44.0576 45.5799 44.1148 45.5799H44.6137C44.6709 45.5799 44.72 45.6005 44.7612 45.6417C44.8023 45.6828 44.8229 45.732 44.8229 45.7891V45.7925C44.8229 45.8508 44.8023 45.8994 44.7612 45.9383C44.72 45.9794 44.6709 46 44.6137 46H44.1148C43.9422 46 43.7947 45.9389 43.6724 45.8165C43.5501 45.6942 43.489 45.5468 43.489 45.3742V43.5293C43.489 43.4722 43.5095 43.423 43.5507 43.3819C43.5918 43.3418 43.6404 43.3218 43.6964 43.3218H43.7016C43.7576 43.3218 43.8062 43.3418 43.8473 43.3819C43.8885 43.423 43.909 43.4722 43.909 43.5293V45.3742Z" fill="black"/>
<path d="M46.3617 44.4517H47.1796C47.2356 44.4517 47.2841 44.4718 47.3253 44.5118C47.3664 44.5529 47.387 44.6021 47.387 44.6592V44.6626C47.387 44.7198 47.3664 44.7689 47.3253 44.8101C47.2841 44.8501 47.2356 44.8701 47.1796 44.8701H46.3617V45.3742C46.3617 45.4313 46.3817 45.4799 46.4217 45.5199C46.4617 45.5599 46.5103 45.5799 46.5675 45.5799H47.1796C47.2356 45.5799 47.2841 45.6005 47.3253 45.6417C47.3664 45.6828 47.387 45.732 47.387 45.7891V45.7925C47.387 45.8508 47.3664 45.8994 47.3253 45.9383C47.2841 45.9794 47.2356 46 47.1796 46H46.5675C46.3949 46 46.2474 45.9389 46.1251 45.8165C46.0028 45.6942 45.9416 45.5468 45.9416 45.3742V43.9477C45.9416 43.7751 46.0028 43.6276 46.1251 43.5053C46.2474 43.383 46.3949 43.3218 46.5675 43.3218H47.1796C47.2356 43.3218 47.2841 43.3424 47.3253 43.3836C47.3664 43.4224 47.387 43.471 47.387 43.5293V43.5327C47.387 43.5899 47.3664 43.639 47.3253 43.6802C47.2841 43.7213 47.2356 43.7419 47.1796 43.7419H46.5675C46.5103 43.7419 46.4617 43.7619 46.4217 43.8019C46.3817 43.8419 46.3617 43.8905 46.3617 43.9477V44.4517Z" fill="black"/>
<path d="M49.303 43.7368C49.2047 43.7368 49.1213 43.7711 49.0527 43.8396C48.9841 43.9082 48.9498 43.9917 48.9498 44.09C48.9498 44.2066 49.003 44.2951 49.1093 44.3557C49.1561 44.382 49.2939 44.4283 49.5225 44.4946C49.7179 44.5529 49.8608 44.6232 49.9511 44.7055C50.086 44.8278 50.1534 44.9998 50.1534 45.2216C50.1534 45.4365 50.0769 45.6199 49.9237 45.772C49.7717 45.924 49.5888 46 49.375 46H48.7218C48.6658 46 48.6172 45.9794 48.576 45.9383C48.5349 45.8971 48.5143 45.8486 48.5143 45.7925V45.7823C48.5143 45.7262 48.5349 45.6777 48.576 45.6365C48.6172 45.5954 48.6658 45.5748 48.7218 45.5748H49.3922C49.4893 45.5748 49.5728 45.5405 49.6425 45.4719C49.7111 45.4033 49.7454 45.3199 49.7454 45.2216C49.7454 45.1073 49.6922 45.0181 49.5859 44.9541C49.5356 44.9244 49.3973 44.8741 49.171 44.8032C48.9755 44.7392 48.8332 44.6666 48.7441 44.5855C48.6092 44.4643 48.5417 44.2991 48.5417 44.09C48.5417 43.8751 48.6178 43.6916 48.7698 43.5396C48.9218 43.3876 49.1053 43.3116 49.3202 43.3116H49.7814C49.8385 43.3116 49.8877 43.3321 49.9288 43.3733C49.9688 43.4133 49.9889 43.4619 49.9889 43.519V43.5293C49.9889 43.5853 49.9688 43.6339 49.9288 43.675C49.8877 43.7162 49.8385 43.7368 49.7814 43.7368H49.303Z" fill="black"/>
<path d="M52.0952 43.7368C51.9969 43.7368 51.9134 43.7711 51.8448 43.8396C51.7763 43.9082 51.742 43.9917 51.742 44.09C51.742 44.2066 51.7951 44.2951 51.9014 44.3557C51.9483 44.382 52.086 44.4283 52.3146 44.4946C52.5101 44.5529 52.653 44.6232 52.7433 44.7055C52.8782 44.8278 52.9456 44.9998 52.9456 45.2216C52.9456 45.4365 52.869 45.6199 52.7159 45.772C52.5638 45.924 52.3809 46 52.1672 46H51.5139C51.4579 46 51.4093 45.9794 51.3682 45.9383C51.327 45.8971 51.3065 45.8486 51.3065 45.7925V45.7823C51.3065 45.7262 51.327 45.6777 51.3682 45.6365C51.4093 45.5954 51.4579 45.5748 51.5139 45.5748H52.1843C52.2815 45.5748 52.3649 45.5405 52.4347 45.4719C52.5032 45.4033 52.5375 45.3199 52.5375 45.2216C52.5375 45.1073 52.4844 45.0181 52.3781 44.9541C52.3278 44.9244 52.1895 44.8741 51.9632 44.8032C51.7677 44.7392 51.6254 44.6666 51.5362 44.5855C51.4013 44.4643 51.3339 44.2991 51.3339 44.09C51.3339 43.8751 51.4099 43.6916 51.5619 43.5396C51.714 43.3876 51.8974 43.3116 52.1123 43.3116H52.5735C52.6307 43.3116 52.6798 43.3321 52.721 43.3733C52.761 43.4133 52.781 43.4619 52.781 43.519V43.5293C52.781 43.5853 52.761 43.6339 52.721 43.675C52.6798 43.7162 52.6307 43.7368 52.5735 43.7368H52.0952Z" fill="black"/>
<path d="M57.6795 43.5327C57.6795 43.5899 57.6589 43.639 57.6178 43.6802C57.5777 43.7202 57.5292 43.7402 57.472 43.7402H57.0537V45.7925C57.0537 45.8497 57.0337 45.8983 56.9936 45.9383C56.9525 45.9794 56.9033 46 56.8462 46H56.8428C56.7856 46 56.7365 45.9794 56.6953 45.9383C56.6553 45.8983 56.6353 45.8497 56.6353 45.7925V43.7402H56.2169C56.1609 43.7402 56.1124 43.7202 56.0712 43.6802C56.0301 43.639 56.0095 43.5899 56.0095 43.5327V43.5293C56.0095 43.4722 56.0301 43.423 56.0712 43.3819C56.1124 43.3418 56.1609 43.3218 56.2169 43.3218H57.472C57.5292 43.3218 57.5777 43.3418 57.6178 43.3819C57.6589 43.423 57.6795 43.4722 57.6795 43.5293V43.5327Z" fill="black"/>
<path d="M59.0622 43.3218C59.1183 43.3218 59.1668 43.3418 59.208 43.3819C59.2491 43.423 59.2697 43.4722 59.2697 43.5293V44.4517H60.2196V43.5293C60.2196 43.4722 60.2402 43.423 60.2813 43.3819C60.3225 43.3418 60.371 43.3218 60.427 43.3218H60.4322C60.4882 43.3218 60.5368 43.3418 60.5779 43.3819C60.6191 43.423 60.6397 43.4722 60.6397 43.5293V45.7925C60.6397 45.8508 60.6191 45.8994 60.5779 45.9383C60.5368 45.9794 60.4882 46 60.4322 46H60.427C60.371 46 60.3225 45.9794 60.2813 45.9383C60.2402 45.8994 60.2196 45.8508 60.2196 45.7925V44.8701H59.2697V45.7925C59.2697 45.8508 59.2491 45.8994 59.208 45.9383C59.1668 45.9794 59.1183 46 59.0622 46H59.0571C59.0011 46 58.9525 45.9794 58.9114 45.9383C58.8702 45.8994 58.8496 45.8508 58.8496 45.7925V43.5293C58.8496 43.4722 58.8702 43.423 58.9114 43.3819C58.9525 43.3418 59.0011 43.3218 59.0571 43.3218H59.0622Z" fill="black"/>
<path d="M63.7044 45.7925C63.7044 45.8508 63.6839 45.8994 63.6427 45.9383C63.6016 45.9794 63.553 46 63.497 46H63.4918C63.4358 46 63.3872 45.9794 63.3461 45.9383C63.3049 45.8994 63.2844 45.8508 63.2844 45.7925V45.0278H62.3499V45.7925C62.3499 45.8508 62.3293 45.8994 62.2882 45.9383C62.247 45.9794 62.1985 46 62.1424 46H62.1373C62.0813 46 62.0327 45.9794 61.9916 45.9383C61.9504 45.8994 61.9298 45.8508 61.9298 45.7925V44.2083C61.9298 43.9637 62.0167 43.7545 62.1905 43.5807C62.3642 43.4081 62.5728 43.3218 62.8163 43.3218C63.0609 43.3218 63.2701 43.4081 63.4438 43.5807C63.6176 43.7545 63.7044 43.9637 63.7044 44.2083V45.7925ZM63.2844 44.6095V44.2083C63.2844 44.0791 63.2392 43.9688 63.1489 43.8774C63.0575 43.7859 62.9466 43.7402 62.8163 43.7402C62.6871 43.7402 62.5768 43.7859 62.4854 43.8774C62.3951 43.9688 62.3499 44.0791 62.3499 44.2083V44.6095H63.2844Z" fill="black"/>
<path d="M66.7709 45.7925C66.7709 45.8508 66.7503 45.8994 66.7092 45.9383C66.668 45.9794 66.6195 46 66.5634 46H66.5583C66.5023 46 66.4537 45.9794 66.4126 45.9383C66.3714 45.8994 66.3508 45.8508 66.3508 45.7925V44.2083C66.3508 44.0791 66.3057 43.9688 66.2154 43.8774C66.1239 43.7859 66.0131 43.7402 65.8828 43.7402C65.7536 43.7402 65.6433 43.7859 65.5518 43.8774C65.4615 43.9688 65.4164 44.0791 65.4164 44.2083V45.7925C65.4164 45.8508 65.3958 45.8994 65.3547 45.9383C65.3135 45.9794 65.2649 46 65.2089 46H65.2038C65.1478 46 65.0992 45.9794 65.0581 45.9383C65.0169 45.8994 64.9963 45.8508 64.9963 45.7925V44.2083C64.9963 43.9637 65.0832 43.7545 65.2569 43.5807C65.4307 43.4081 65.6393 43.3218 65.8828 43.3218C66.1274 43.3218 66.3366 43.4081 66.5103 43.5807C66.684 43.7545 66.7709 43.9637 66.7709 44.2083V45.7925Z" fill="black"/>
<path d="M70.4452 44.7226H70.9355C71.0716 44.7226 71.1876 44.6746 71.2836 44.5786C71.3785 44.4838 71.4259 44.3683 71.4259 44.2323C71.4259 44.0963 71.3785 43.9802 71.2836 43.8842C71.1876 43.7882 71.0716 43.7402 70.9355 43.7402C70.7995 43.7402 70.6835 43.7882 70.5875 43.8842C70.4926 43.9802 70.4452 44.0963 70.4452 44.2323V44.7226ZM70.4452 45.1427V45.7925C70.4452 45.8508 70.4246 45.8994 70.3835 45.9383C70.3423 45.9794 70.2937 46 70.2377 46H70.2326C70.1766 46 70.128 45.9794 70.0868 45.9383C70.0457 45.8994 70.0251 45.8508 70.0251 45.7925V44.2323C70.0251 43.9808 70.1143 43.7659 70.2926 43.5876C70.4709 43.4104 70.6852 43.3218 70.9355 43.3218C71.187 43.3218 71.4013 43.4104 71.5785 43.5876C71.7568 43.7659 71.846 43.9808 71.846 44.2323C71.846 44.4826 71.7568 44.6969 71.5785 44.8752C71.4013 45.0536 71.187 45.1427 70.9355 45.1427H70.4452Z" fill="black"/>
<path d="M73.9592 44.6181C74.0803 44.6181 74.1838 44.5758 74.2695 44.4912C74.3552 44.4055 74.3981 44.302 74.3981 44.1808C74.3981 44.0585 74.3552 43.9545 74.2695 43.8688C74.1838 43.7842 74.0803 43.7419 73.9592 43.7419H73.762C73.6763 43.7419 73.6094 43.7653 73.5614 43.8122C73.5237 43.8499 73.4997 43.8945 73.4894 43.9459C73.4871 43.9585 73.4859 43.9785 73.4859 44.006V44.6181H73.9592ZM74.3981 45.4753C74.3981 45.3542 74.3552 45.2507 74.2695 45.165C74.1918 45.0861 74.0992 45.0438 73.9917 45.0381H73.4859V45.7925C73.4859 45.8497 73.4659 45.8983 73.4259 45.9383C73.3848 45.9794 73.3356 46 73.2785 46H73.275C73.2168 46 73.1682 45.9794 73.1293 45.9383C73.0882 45.8994 73.0676 45.8508 73.0676 45.7925V43.9905C73.0676 43.8065 73.1327 43.6493 73.263 43.519C73.3945 43.3876 73.5522 43.3218 73.7363 43.3218H73.9592C74.1958 43.3218 74.3975 43.4059 74.5644 43.5739C74.7324 43.7419 74.8165 43.9442 74.8165 44.1808C74.8165 44.4163 74.7324 44.6181 74.5644 44.7861L74.525 44.8272L74.5661 44.8701C74.733 45.037 74.8165 45.2387 74.8165 45.4753V45.7925C74.8165 45.8508 74.7959 45.8994 74.7547 45.9383C74.7136 45.9794 74.665 46 74.609 46H74.6056C74.5495 46 74.501 45.9794 74.4598 45.9383C74.4187 45.8994 74.3981 45.8508 74.3981 45.7925V45.4753Z" fill="black"/>
<path d="M76.441 44.4517H77.2588C77.3148 44.4517 77.3634 44.4718 77.4046 44.5118C77.4457 44.5529 77.4663 44.6021 77.4663 44.6592V44.6626C77.4663 44.7198 77.4457 44.7689 77.4046 44.8101C77.3634 44.8501 77.3148 44.8701 77.2588 44.8701H76.441V45.3742C76.441 45.4313 76.461 45.4799 76.501 45.5199C76.541 45.5599 76.5896 45.5799 76.6467 45.5799H77.2588C77.3148 45.5799 77.3634 45.6005 77.4046 45.6417C77.4457 45.6828 77.4663 45.732 77.4663 45.7891V45.7925C77.4663 45.8508 77.4457 45.8994 77.4046 45.9383C77.3634 45.9794 77.3148 46 77.2588 46H76.6467C76.4741 46 76.3267 45.9389 76.2044 45.8165C76.0821 45.6942 76.0209 45.5468 76.0209 45.3742V43.9477C76.0209 43.7751 76.0821 43.6276 76.2044 43.5053C76.3267 43.383 76.4741 43.3218 76.6467 43.3218H77.2588C77.3148 43.3218 77.3634 43.3424 77.4046 43.3836C77.4457 43.4224 77.4663 43.471 77.4663 43.5293V43.5327C77.4663 43.5899 77.4457 43.639 77.4046 43.6802C77.3634 43.7213 77.3148 43.7419 77.2588 43.7419H76.6467C76.5896 43.7419 76.541 43.7619 76.501 43.8019C76.461 43.8419 76.441 43.8905 76.441 43.9477V44.4517Z" fill="black"/>
<path d="M79.0823 44.4517H79.7972C79.8532 44.4517 79.9018 44.4718 79.943 44.5118C79.9841 44.5529 80.0047 44.6021 80.0047 44.6592V44.6626C80.0047 44.7209 79.9841 44.7695 79.943 44.8084C79.9018 44.8495 79.8532 44.8701 79.7972 44.8701H79.0823V45.7925C79.0823 45.8508 79.0617 45.8994 79.0205 45.9383C78.9794 45.9794 78.9308 46 78.8748 46H78.8696C78.8136 46 78.7651 45.9794 78.7239 45.9383C78.6828 45.8994 78.6622 45.8508 78.6622 45.7925V43.9477C78.6622 43.7751 78.7233 43.6276 78.8456 43.5053C78.9679 43.383 79.1154 43.3218 79.288 43.3218H79.8144C79.8704 43.3218 79.919 43.3418 79.9601 43.3819C80.0013 43.423 80.0218 43.4722 80.0218 43.5293V43.5327C80.0218 43.5899 80.0013 43.639 79.9601 43.6802C79.919 43.7202 79.8704 43.7402 79.8144 43.7402H79.288C79.2308 43.7402 79.1823 43.7602 79.1423 43.8002C79.1023 43.8402 79.0823 43.8894 79.0823 43.9477V44.4517Z" fill="black"/>
<path d="M81.5966 44.4517H82.4145C82.4705 44.4517 82.5191 44.4718 82.5602 44.5118C82.6014 44.5529 82.622 44.6021 82.622 44.6592V44.6626C82.622 44.7198 82.6014 44.7689 82.5602 44.8101C82.5191 44.8501 82.4705 44.8701 82.4145 44.8701H81.5966V45.3742C81.5966 45.4313 81.6166 45.4799 81.6566 45.5199C81.6967 45.5599 81.7452 45.5799 81.8024 45.5799H82.4145C82.4705 45.5799 82.5191 45.6005 82.5602 45.6417C82.6014 45.6828 82.622 45.732 82.622 45.7891V45.7925C82.622 45.8508 82.6014 45.8994 82.5602 45.9383C82.5191 45.9794 82.4705 46 82.4145 46H81.8024C81.6298 46 81.4823 45.9389 81.36 45.8165C81.2377 45.6942 81.1766 45.5468 81.1766 45.3742V43.9477C81.1766 43.7751 81.2377 43.6276 81.36 43.5053C81.4823 43.383 81.6298 43.3218 81.8024 43.3218H82.4145C82.4705 43.3218 82.5191 43.3424 82.5602 43.3836C82.6014 43.4224 82.622 43.471 82.622 43.5293V43.5327C82.622 43.5899 82.6014 43.639 82.5602 43.6802C82.5191 43.7213 82.4705 43.7419 82.4145 43.7419H81.8024C81.7452 43.7419 81.6967 43.7619 81.6566 43.8019C81.6166 43.8419 81.5966 43.8905 81.5966 43.9477V44.4517Z" fill="black"/>
<path d="M85.0969 43.3218C85.2101 43.3218 85.321 43.3356 85.4295 43.363C85.5347 43.3904 85.5873 43.4573 85.5873 43.5636V43.5687C85.5873 43.6362 85.5598 43.691 85.505 43.7333C85.4684 43.7619 85.4284 43.7762 85.385 43.7762C85.3667 43.7762 85.3478 43.7739 85.3284 43.7693C85.2518 43.7499 85.1746 43.7402 85.0969 43.7402C84.8432 43.7402 84.6265 43.8299 84.4471 44.0094C84.2676 44.1888 84.1779 44.406 84.1779 44.6609C84.1779 44.9158 84.2676 45.133 84.4471 45.3125C84.6265 45.4908 84.8432 45.5799 85.0969 45.5799C85.1746 45.5799 85.2518 45.5708 85.3284 45.5525C85.3478 45.5479 85.3667 45.5456 85.385 45.5456C85.4284 45.5456 85.4684 45.5599 85.505 45.5885C85.5598 45.6297 85.5873 45.6845 85.5873 45.7531V45.7565C85.5873 45.864 85.5347 45.9314 85.4295 45.9589C85.321 45.9863 85.2101 46 85.0969 46C84.7277 46 84.4122 45.8691 84.1505 45.6074C83.8887 45.3456 83.7578 45.0301 83.7578 44.6609C83.7578 44.2917 83.8887 43.9762 84.1505 43.7145C84.4122 43.4527 84.7277 43.3218 85.0969 43.3218Z" fill="black"/>
<path d="M88.3417 43.5327C88.3417 43.5899 88.3211 43.639 88.28 43.6802C88.24 43.7202 88.1914 43.7402 88.1342 43.7402H87.7159V45.7925C87.7159 45.8497 87.6959 45.8983 87.6559 45.9383C87.6147 45.9794 87.5656 46 87.5084 46H87.505C87.4478 46 87.3987 45.9794 87.3575 45.9383C87.3175 45.8983 87.2975 45.8497 87.2975 45.7925V43.7402H86.8792C86.8232 43.7402 86.7746 43.7202 86.7334 43.6802C86.6923 43.639 86.6717 43.5899 86.6717 43.5327V43.5293C86.6717 43.4722 86.6923 43.423 86.7334 43.3819C86.7746 43.3418 86.8232 43.3218 86.8792 43.3218H88.1342C88.1914 43.3218 88.24 43.3418 88.28 43.3819C88.3211 43.423 88.3417 43.4722 88.3417 43.5293V43.5327Z" fill="black"/>
<line x1="53.142" y1="37.7748" x2="88.2565" y2="37.7748" stroke="black"/>
<line x1="0.821411" y1="37.7748" x2="35.9359" y2="37.7748" stroke="black"/>
<rect x="42.2565" y="38.2748" width="3.16031" height="3.16031" rx="1" transform="rotate(-45 42.2565 38.2748)" fill="#0099FF"/>
<rect x="47.5237" y="38.2748" width="2.10687" height="2.10687" rx="1" transform="rotate(-45 47.5237 38.2748)" fill="#FF6100"/>
<rect x="38.745" y="38.2748" width="2.10687" height="2.10687" rx="1" transform="rotate(-45 38.745 38.2748)" fill="#FFB629"/>
</svg>
