<svg width="37" height="27" viewBox="0 0 37 27" fill="none" xmlns="http://www.w3.org/2000/svg">
<path fill-rule="evenodd" clip-rule="evenodd" d="M13.7075 0.0492786C9.60443 0.34377 6.26203 1.5359 4.08041 3.483C1.90948 5.42058 0.645553 8.14035 0.145143 11.9508C0.0902805 12.3683 0.0522601 14.9883 0.0313705 19.7889L0 27H7.4862H14.9725V19.2919V11.5837L12.1354 11.5644L9.29832 11.5451L9.32304 11.0656C9.36453 10.2593 9.53577 9.5853 9.88164 8.86692C10.4334 7.72075 11.4035 6.86936 12.8214 6.28687C13.4175 6.04202 14.6174 5.72046 15.2435 5.63769C15.5684 5.59475 15.6224 5.56502 15.6191 5.43106C15.617 5.34504 15.3628 4.09611 15.0543 2.65574L14.4934 0.0368852L14.2812 0.0300981C14.1644 0.0264096 13.9063 0.0350409 13.7075 0.0492786ZM34.7055 0.0792293C32.8751 0.235475 30.7445 0.676328 29.3817 1.18084C27.5556 1.85688 26.1557 2.73902 24.9429 3.97807C23.0909 5.87021 22.0632 8.13334 21.5835 11.3757C21.3877 12.6988 21.3375 14.6272 21.3353 20.8955L21.3333 27H28.8145H36.2957V19.291V11.582H33.466H30.6363L30.6812 10.9365C30.8185 8.96083 31.8183 7.45901 33.6133 6.53245C34.2121 6.22335 35.3828 5.85657 36.2465 5.7074C36.8744 5.59896 37.0211 5.55049 36.9977 5.45909C36.9816 5.39668 36.7126 4.1428 36.3998 2.67278L35.831 0L35.6116 0.0103278C35.491 0.0160082 35.0832 0.0469916 34.7055 0.0792293Z" fill="#333333"/>
</svg>
